<svg width="171" height="52" viewBox="0 0 171 52" fill="none" xmlns="http://www.w3.org/2000/svg">
<circle cx="23.04" cy="25.1891" r="12.9097" fill="white" fill-opacity="0.5"/>
<circle cx="17.2323" cy="37.4505" r="7.10209" fill="white"/>
<mask id="mask0_357_9401" style="mask-type:alpha" maskUnits="userSpaceOnUse" x="16" y="13" width="3" height="20">
<path fill-rule="evenodd" clip-rule="evenodd" d="M16.4513 32.045L16.4513 13.0114L18.0345 13.0114L18.0345 32.045L16.4513 32.045Z" fill="white"/>
</mask>
<g mask="url(#mask0_357_9401)">
<path d="M35.9496 25.1891C35.9496 32.3189 30.1698 38.0988 23.0399 38.0988C15.9101 38.0988 10.1303 32.3189 10.1303 25.1891C10.1303 18.0593 15.9101 12.2794 23.0399 12.2794C30.1698 12.2794 35.9496 18.0593 35.9496 25.1891Z" fill="white"/>
</g>
<path d="M53.3765 27.2294H50.1701V32.4134H47.8469V19.1846H53.4533C55.0277 19.1846 57.2549 20.4902 57.2549 23.1014C57.2549 26.5958 54.7205 27.2294 53.3765 27.2294ZM50.1701 25.271H53.3957C53.9141 25.271 54.9701 24.8294 54.9701 23.1014C54.9701 21.8918 54.1061 21.1622 53.4533 21.1622H50.1701V25.271ZM70.2207 26.5766V29.6294C70.2207 30.071 70.3743 30.455 71.1231 30.455H76.3263V32.4134H71.0079C68.8767 32.3558 67.9359 31.703 67.8975 29.7254V19.1846H76.3263V21.143H70.2207V24.6182H75.9039V26.5766H70.2207ZM89.7678 22.7942V32.4134H87.4446V19.1846H89.7486C91.515 21.4118 93.8766 24.9446 95.4126 28.2086V19.1846H97.7358V32.4134H95.4126C93.8766 29.3414 92.1678 26.231 89.7678 22.7942ZM114.035 32.4134H109.465V19.1846H114.035C117.241 19.1846 120.217 21.431 120.217 25.8278C120.217 30.2822 117.241 32.4134 114.035 32.4134ZM111.789 30.455H113.229C116.224 30.455 117.798 28.8806 117.798 25.8278C117.798 22.8134 116.358 21.143 113.229 21.143H111.789V30.455ZM133.508 19.1846V29.4566C133.508 29.9942 133.7 30.455 134.602 30.455H139.767V32.4134H134.295C132.164 32.3558 131.223 31.703 131.185 29.7254V19.1846H133.508ZM152.435 26.5766V29.6294C152.435 30.071 152.589 30.455 153.337 30.455H158.541V32.4134H153.222C151.091 32.3558 150.15 31.703 150.112 29.7254V19.1846H158.541V21.143H152.435V24.6182H158.118V26.5766H152.435Z" fill="white"/>
</svg>
