<svg width="1028" height="207" viewBox="0 0 1028 207" fill="none" xmlns="http://www.w3.org/2000/svg">
<circle cx="91.4751" cy="88.4487" r="53.3735" fill="white" fill-opacity="0.5"/>
<g filter="url(#filter0_d_377_9441)">
<circle cx="67.4642" cy="139.143" r="29.3627" fill="white"/>
<mask id="mask0_377_9441" style="mask-type:alpha" maskUnits="userSpaceOnUse" x="64" y="38" width="7" height="79">
<path fill-rule="evenodd" clip-rule="evenodd" d="M64.2357 116.795L64.2357 38.1025L70.7812 38.1025L70.7812 116.795L64.2357 116.795Z" fill="white"/>
</mask>
<g mask="url(#mask0_377_9441)">
<path d="M144.849 88.4507C144.849 117.928 120.952 141.824 91.4751 141.824C61.9977 141.824 38.1016 117.928 38.1016 88.4507C38.1016 58.9733 61.9977 35.0771 91.4751 35.0771C120.952 35.0771 144.849 58.9733 144.849 88.4507Z" fill="white"/>
</g>
</g>
<path d="M197.086 152.188V50.8816H217.202C227.622 50.8816 235.727 53.0524 241.516 57.3941C247.305 61.7358 250.199 67.7659 250.199 75.4845C250.199 81.1769 248.511 86.0493 245.134 90.1015C241.757 94.0573 237.029 96.7588 230.951 98.206V99.0744C239.249 100.136 245.713 103.03 250.344 107.758C255.072 112.389 257.435 118.274 257.435 125.414C257.435 133.808 254.203 140.369 247.739 145.096C241.275 149.824 232.205 152.188 220.531 152.188H197.086ZM217.347 54.3549H206.927V97.7719H217.202C232.447 97.7719 240.069 90.5357 240.069 76.0634C240.069 61.5911 232.495 54.3549 217.347 54.3549ZM220.531 101.245H206.927V148.714H220.531C238.187 148.714 247.015 140.803 247.015 124.98C247.015 109.157 238.187 101.245 220.531 101.245Z" fill="white"/>
<path d="M279.171 101.535C279.171 94.1055 280.474 87.2071 283.079 80.8393C285.78 74.375 289.495 68.779 294.222 64.0514C299.046 59.2273 304.642 55.5127 311.01 52.9077C317.474 50.2062 324.421 48.8555 331.85 48.8555C339.279 48.8555 346.178 50.2062 352.546 52.9077C359.01 55.5127 364.606 59.2273 369.333 64.0514C374.158 68.779 377.872 74.375 380.477 80.8393C383.179 87.2071 384.529 94.1055 384.529 101.535C384.529 108.964 383.179 115.91 380.477 122.375C377.872 128.743 374.158 134.339 369.333 139.163C364.606 143.89 359.01 147.605 352.546 150.306C346.178 152.911 339.279 154.214 331.85 154.214C324.421 154.214 317.474 152.911 311.01 150.306C304.642 147.605 299.046 143.89 294.222 139.163C289.495 134.339 285.78 128.743 283.079 122.375C280.474 115.91 279.171 108.964 279.171 101.535ZM290.17 101.535C290.17 111.376 291.907 120.011 295.38 127.44C298.853 134.773 303.726 140.513 309.997 144.662C316.268 148.714 323.553 150.74 331.85 150.74C340.148 150.74 347.432 148.714 353.703 144.662C359.975 140.513 364.847 134.724 368.32 127.295C371.794 119.866 373.53 111.279 373.53 101.535C373.53 91.79 371.794 83.2513 368.32 75.9187C364.847 68.4896 359.975 62.7006 353.703 58.5519C347.432 54.4032 340.148 52.3288 331.85 52.3288C323.553 52.3288 316.268 54.4032 309.997 58.5519C303.822 62.6042 298.95 68.3448 295.38 75.774C291.907 83.1066 290.17 91.6935 290.17 101.535Z" fill="white"/>
<path d="M414.877 50.8816H434.27C444.497 50.8816 452.409 53.0524 458.005 57.3941C463.697 61.6393 466.543 67.6212 466.543 75.3398C466.543 81.3217 464.758 86.2905 461.188 90.2463C457.715 94.202 452.65 96.8553 445.993 98.206V99.0744C452.36 100.329 457.57 103.32 461.623 108.047C465.675 112.775 468.714 118.612 470.74 125.559C472.573 131.926 474.358 136.895 476.095 140.465C477.928 143.938 479.906 146.447 482.029 147.991C484.248 149.534 486.853 150.644 489.844 151.319V152.188H483.91C479.665 152.188 476.143 151.416 473.345 149.872C470.644 148.328 468.328 145.723 466.398 142.057C464.469 138.391 462.636 133.325 460.899 126.861C458.101 116.924 454.386 109.88 449.755 105.732C445.124 101.583 439.48 99.5085 432.823 99.5085H431.954V96.9035H432.823C448.356 96.9035 456.123 89.7638 456.123 75.4845C456.123 61.3981 448.839 54.3549 434.27 54.3549H424.718V152.188H414.877V50.8816Z" fill="white"/>
<path d="M497.669 101.535C497.669 94.1055 498.971 87.2071 501.576 80.8393C504.278 74.375 507.992 68.779 512.72 64.0514C517.544 59.2273 523.14 55.5127 529.508 52.9077C535.972 50.2062 542.919 48.8555 550.348 48.8555C557.777 48.8555 564.676 50.2062 571.043 52.9077C577.508 55.5127 583.104 59.2273 587.831 64.0514C592.655 68.779 596.37 74.375 598.975 80.8393C601.676 87.2071 603.027 94.1055 603.027 101.535C603.027 108.964 601.676 115.91 598.975 122.375C596.37 128.743 592.655 134.339 587.831 139.163C583.104 143.89 577.508 147.605 571.043 150.306C564.676 152.911 557.777 154.214 550.348 154.214C542.919 154.214 535.972 152.911 529.508 150.306C523.14 147.605 517.544 143.89 512.72 139.163C507.992 134.339 504.278 128.743 501.576 122.375C498.971 115.91 497.669 108.964 497.669 101.535ZM508.668 101.535C508.668 111.376 510.404 120.011 513.878 127.44C517.351 134.773 522.224 140.513 528.495 144.662C534.766 148.714 542.051 150.74 550.348 150.74C558.645 150.74 565.93 148.714 572.201 144.662C578.473 140.513 583.345 134.724 586.818 127.295C590.292 119.866 592.028 111.279 592.028 101.535C592.028 91.79 590.292 83.2513 586.818 75.9187C583.345 68.4896 578.473 62.7006 572.201 58.5519C565.93 54.4032 558.645 52.3288 550.348 52.3288C542.051 52.3288 534.766 54.4032 528.495 58.5519C522.32 62.6042 517.448 68.3448 513.878 75.774C510.404 83.1066 508.668 91.6935 508.668 101.535Z" fill="white"/>
<path d="M624.547 149.004L625.415 140.32H626.283C630.046 143.601 634.292 146.158 639.019 147.991C643.747 149.824 648.426 150.74 653.057 150.74C659.618 150.74 664.925 148.956 668.977 145.386C673.029 141.719 675.055 136.847 675.055 130.769C675.055 127.392 674.283 124.256 672.74 121.362C671.292 118.467 668.832 115.525 665.359 112.534C661.982 109.543 657.302 106.311 651.321 102.837C647.172 100.425 643.216 97.9166 639.453 95.3116C635.69 92.6101 632.603 89.5226 630.191 86.0493C627.779 82.4795 626.573 78.2342 626.573 73.3137C626.573 65.981 629.226 60.0956 634.533 55.6574C639.839 51.1228 646.834 48.8555 655.518 48.8555C659.377 48.8555 663.526 49.2896 667.964 50.158C672.402 50.9298 675.827 51.9429 678.239 53.1972L677.515 61.3017H676.647C671.148 55.3198 664.104 52.3288 655.518 52.3288C649.343 52.3288 644.374 53.9208 640.611 57.1047C636.848 60.1921 634.967 64.3891 634.967 69.6956C634.967 73.6513 635.98 77.0765 638.006 79.9709C640.129 82.7689 642.83 85.3257 646.111 87.6412C649.391 89.8603 652.913 92.0312 656.675 94.1538C661.017 96.6623 665.214 99.3156 669.266 102.114C673.415 104.912 676.792 108.288 679.397 112.244C682.098 116.103 683.449 120.976 683.449 126.861C683.449 132.264 682.195 137.04 679.686 141.189C677.178 145.241 673.608 148.425 668.977 150.74C664.442 153.056 659.136 154.214 653.057 154.214C649.198 154.214 644.663 153.731 639.453 152.767C634.243 151.802 629.274 150.548 624.547 149.004Z" fill="white"/>
<rect x="713.449" y="68.5342" width="306" height="66" rx="33" fill="#6079FF" fill-opacity="0.2"/>
<path d="M767.285 109.531L760.852 93.8311H765.185L769.252 104.898L773.252 93.8311H777.585C770.918 110.764 770.252 112.364 769.885 113.498C768.885 116.398 767.352 116.831 764.452 116.764H762.552V113.731L764.418 113.698C765.318 113.631 765.918 113.364 766.385 112.198L767.285 109.531Z" fill="white"/>
<path d="M755.316 101.898C755.283 99.3979 753.783 96.5979 750.483 96.5979C749.216 96.5979 747.916 97.1979 747.449 97.4312V106.365C747.916 106.598 749.216 107.165 750.483 107.165C753.783 107.165 755.283 104.365 755.316 101.898ZM743.449 109.965V86.2979H747.449V94.6645C748.616 93.6979 750.183 93.4312 751.649 93.4312C755.749 93.4312 759.283 96.4645 759.283 101.865C759.283 107.331 755.749 110.331 751.649 110.331C750.183 110.331 748.049 109.698 747.216 108.731L746.983 109.965H743.449Z" fill="white"/>
<path d="M979.16 102.884V108.184C979.16 108.951 979.427 109.617 980.727 109.617H989.76V113.017H980.527C976.827 112.917 975.194 111.784 975.127 108.351V90.0508H989.76V93.4508H979.16V99.4841H989.027V102.884H979.16Z" fill="white"/>
<path d="M946.301 90.0508V107.884C946.301 108.817 946.634 109.617 948.201 109.617H957.168V113.017H947.668C943.968 112.917 942.334 111.784 942.268 108.351V90.0508H946.301Z" fill="white"/>
<path d="M912.494 113.017H904.561V90.0508H912.494C918.061 90.0508 923.227 93.9508 923.227 101.584C923.227 109.317 918.061 113.017 912.494 113.017ZM908.594 109.617H911.094C916.294 109.617 919.027 106.884 919.027 101.584C919.027 96.3508 916.527 93.4508 911.094 93.4508H908.594V109.617Z" fill="white"/>
<path d="M870.363 96.3174V113.017H866.33V90.0508H870.33C873.397 93.9174 877.497 100.051 880.163 105.717V90.0508H884.197V113.017H880.163C877.497 107.684 874.53 102.284 870.363 96.3174Z" fill="white"/>
<path d="M836.428 102.884V108.184C836.428 108.951 836.695 109.617 837.995 109.617H847.028V113.017H837.795C834.095 112.917 832.461 111.784 832.395 108.351V90.0508H847.028V93.4508H836.428V99.4841H846.295V102.884H836.428Z" fill="white"/>
<path d="M807.184 104.017H801.617V113.017H797.584V90.0508H807.317C810.051 90.0508 813.917 92.3174 813.917 96.8508C813.917 102.917 809.517 104.017 807.184 104.017ZM801.617 100.617H807.217C808.117 100.617 809.951 99.8508 809.951 96.8508C809.951 94.7508 808.451 93.4841 807.317 93.4841H801.617V100.617Z" fill="white"/>
<defs>
<filter id="filter0_d_377_9441" x="-0.000835419" y="0.000141144" width="134.929" height="206.608" filterUnits="userSpaceOnUse" color-interpolation-filters="sRGB">
<feFlood flood-opacity="0" result="BackgroundImageFix"/>
<feColorMatrix in="SourceAlpha" type="matrix" values="0 0 0 0 0 0 0 0 0 0 0 0 0 0 0 0 0 0 127 0" result="hardAlpha"/>
<feOffset/>
<feGaussianBlur stdDeviation="19.0512"/>
<feComposite in2="hardAlpha" operator="out"/>
<feColorMatrix type="matrix" values="0 0 0 0 0.376471 0 0 0 0 0.588235 0 0 0 0 1 0 0 0 1 0"/>
<feBlend mode="normal" in2="BackgroundImageFix" result="effect1_dropShadow_377_9441"/>
<feBlend mode="normal" in="SourceGraphic" in2="effect1_dropShadow_377_9441" result="shape"/>
</filter>
</defs>
</svg>
