<svg width="33" height="27" viewBox="0 0 33 27" fill="none" xmlns="http://www.w3.org/2000/svg">
<path d="M27.9364 2.9958C25.7966 2.01378 23.5386 1.31289 21.2189 0.910612C21.1978 0.907073 21.1763 0.91013 21.157 0.919363C21.1378 0.928596 21.122 0.943552 21.1116 0.962175C20.8208 1.4778 20.499 2.15224 20.2742 2.68024C17.7737 2.30075 15.2302 2.30075 12.7296 2.68024C12.4788 2.09205 12.1951 1.51846 11.8799 0.962175C11.8693 0.943756 11.8534 0.928973 11.8342 0.919769C11.8151 0.910565 11.7936 0.907373 11.7726 0.910612C9.4523 1.31074 7.19386 2.01199 5.05505 2.9958C5.03675 3.00278 5.02144 3.01591 5.01173 3.03292C0.73411 9.42461 -0.439452 15.6595 0.135985 21.8161C0.138048 21.845 0.15661 21.8739 0.179298 21.8924C2.67023 23.7376 5.45639 25.1463 8.41898 26.0587C8.4399 26.0653 8.46238 26.065 8.48315 26.058C8.50392 26.0509 8.5219 26.0374 8.53448 26.0195C9.16973 25.1532 9.73486 24.2395 10.2216 23.2784C10.2318 23.2586 10.2352 23.2361 10.2315 23.2142C10.2278 23.1922 10.2171 23.1721 10.201 23.1567C10.1903 23.1467 10.1777 23.1389 10.1639 23.134C9.27525 22.7925 8.41464 22.3822 7.58986 21.9069C7.56682 21.8938 7.54969 21.8724 7.54201 21.847C7.53433 21.8217 7.53669 21.7944 7.54861 21.7707C7.55563 21.7554 7.56624 21.7419 7.57955 21.7315C7.7528 21.6016 7.92605 21.4655 8.09105 21.3294C8.10562 21.3176 8.12311 21.3101 8.14164 21.3076C8.16017 21.305 8.17904 21.3076 8.19623 21.3149C13.5979 23.7817 19.4451 23.7817 24.7808 21.3149C24.7986 21.3072 24.8182 21.3045 24.8375 21.307C24.8567 21.3096 24.8749 21.3173 24.8901 21.3294C25.0551 21.4655 25.2284 21.6016 25.4016 21.7315C25.4156 21.7418 25.4269 21.7554 25.4344 21.7711C25.4419 21.7868 25.4454 21.8041 25.4446 21.8214C25.4438 21.8388 25.4387 21.8557 25.4297 21.8706C25.4208 21.8855 25.4083 21.898 25.3934 21.9069C24.5705 22.3866 23.7087 22.7964 22.8173 23.132C22.8031 23.1371 22.7902 23.1453 22.7795 23.156C22.7688 23.1667 22.7606 23.1796 22.7554 23.1939C22.7507 23.2076 22.7487 23.2222 22.7498 23.2368C22.7509 23.2513 22.7549 23.2655 22.7616 23.2784C23.2566 24.2375 23.8238 25.1532 24.4467 26.0195C24.4593 26.0374 24.4772 26.0509 24.498 26.058C24.5188 26.065 24.5413 26.0653 24.5622 26.0587C27.5297 25.1492 30.3204 23.7402 32.8142 21.8924C32.8267 21.8838 32.8371 21.8724 32.8446 21.8592C32.8521 21.846 32.8565 21.8313 32.8575 21.8161C33.5464 14.6984 31.7046 8.51505 27.9777 3.03499C27.9739 3.02594 27.9683 3.01777 27.9612 3.01102C27.9541 3.00427 27.9457 2.99909 27.9364 2.9958ZM11.028 18.0665C9.40073 18.0665 8.06217 16.5732 8.06217 14.7417C8.06217 12.9082 9.37599 11.4149 11.028 11.4149C12.6925 11.4149 14.0187 12.9205 13.9939 14.7417C13.9939 16.5732 12.6801 18.0665 11.028 18.0665ZM21.9923 18.0665C20.367 18.0665 19.0264 16.5732 19.0264 14.7417C19.0264 12.9082 20.3402 11.4149 21.9923 11.4149C23.6567 11.4149 24.985 12.9205 24.9582 14.7417C24.9582 16.5732 23.6567 18.0665 21.9923 18.0665Z" fill="white"/>
</svg>
