<svg width="33" height="27" viewBox="0 0 33 27" fill="none" xmlns="http://www.w3.org/2000/svg">
<path d="M33 3.14415C32.0811 4.49764 30.9537 5.65142 29.6178 6.6055C29.631 6.86138 29.6376 7.15059 29.6376 7.47313C29.6376 9.26522 29.3737 11.0595 28.846 12.8559C28.3182 14.6524 27.5121 16.3719 26.4276 18.0144C25.3431 19.657 24.0513 21.1122 22.5521 22.38C21.053 23.6478 19.2509 24.6587 17.1459 25.4126C15.0409 26.1665 12.785 26.5435 10.378 26.5435C6.62154 26.5435 3.1622 25.5393 0 23.531C0.561254 23.5929 1.09954 23.6238 1.61487 23.6238C4.75309 23.6238 7.55603 22.6666 10.0237 20.7524C8.56046 20.7258 7.25004 20.2798 6.09242 19.4144C4.93479 18.5489 4.13814 17.443 3.70247 16.0967C4.1331 16.178 4.55813 16.2186 4.97754 16.2186C5.58125 16.2186 6.1753 16.1406 6.75968 15.9847C5.19816 15.675 3.90274 14.9049 2.87343 13.6743C1.84415 12.4438 1.32952 11.0235 1.32952 9.41349V9.33051C2.28799 9.856 3.31034 10.1355 4.39659 10.1691C3.47156 9.55843 2.73814 8.76213 2.19635 7.78019C1.65452 6.79824 1.38361 5.73559 1.38361 4.59226C1.38361 3.38643 1.68876 2.26357 2.29907 1.22368C3.9972 3.28712 6.05484 4.93628 8.47199 6.17117C10.8892 7.40608 13.4823 8.09191 16.2515 8.22866C16.1334 7.74127 16.0742 7.23266 16.074 6.70281C16.074 4.8528 16.7352 3.27316 18.0575 1.9639C19.3799 0.654633 20.9752 0 22.8436 0C24.7997 0 26.4473 0.705269 27.7865 2.11581C29.3165 1.81571 30.7492 1.2729 32.0844 0.487391C31.57 2.09044 30.5787 3.32708 29.1107 4.19732C30.46 4.03855 31.7564 3.6875 33 3.14415H33Z" fill="white"/>
</svg>
