<?xml version="1.0" encoding="iso-8859-1"?>
<!-- Generator: Adobe Illustrator 16.0.0, SVG Export Plug-In . SVG Version: 6.00 Build 0)  -->
<!DOCTYPE svg PUBLIC "-//W3C//DTD SVG 1.1//EN" "http://www.w3.org/Graphics/SVG/1.1/DTD/svg11.dtd">
<svg version="1.1" id="Capa_1" xmlns="http://www.w3.org/2000/svg" xmlns:xlink="http://www.w3.org/1999/xlink" x="0px" y="0px"
	 width="610.633px" height="610.633px" viewBox="0 0 610.633 610.633" style="enable-background:new 0 0 610.633 610.633;"
	 fill="#1e4480" xml:space="preserve">
<g>
	<g>
		<polygon points="553.941,473.344 418.288,473.344 418.288,610.633 		"/>
		<path d="M553.941,38.164C553.941,17.069,536.872,0,515.777,0H94.855C73.78,0,56.691,17.069,56.691,38.164v534.305
			c0,21.095,17.088,38.164,38.164,38.164h284.613V449.395c0-10.548,8.534-19.082,19.082-19.082h155.391V38.164z M114.066,95.625
			h191.25v43.031h-191.25V95.625z M114.066,215.156h191.25v43.031h-191.25V215.156z M305.316,497.25h-191.25v-43.031h191.25V497.25z
			 M487.004,377.719H114.066v-43.031h372.938V377.719z M487.004,258.188H367.473V95.625h119.531V258.188z"/>
	</g>
</g>
<g>
</g>
<g>
</g>
<g>
</g>
<g>
</g>
<g>
</g>
<g>
</g>
<g>
</g>
<g>
</g>
<g>
</g>
<g>
</g>
<g>
</g>
<g>
</g>
<g>
</g>
<g>
</g>
<g>
</g>
</svg>
